<?xml version="1.0" encoding="UTF-8"?>
<svg enable-background="new 0 0 32 32" version="1.1" viewBox="0 0 32 32" xml:space="preserve" xmlns="http://www.w3.org/2000/svg" xmlns:xlink="http://www.w3.org/1999/xlink">
<style type="text/css">
	.st0{fill:#D61A28;}
	.st1{fill:#FFE566;}
	.st2{fill:#A2F338;}
</style>

	<defs>
		<rect id="b" x="54.9" y="-463.1" width="327.2" height="168.3"/>
	</defs>
	<clipPath id="a">
		<use xlink:href="#b"/>
	</clipPath>
	<g transform="translate(-3.0518e-5)" clip-path="url(#a)">
		
			<image transform="matrix(1.6262 0 0 5.4531 -469.79 -2080.2)" width="1366" height="768" overflow="visible" xlink:href="16C9EECD.jpg">
		</image>
	</g>


	
		
			<circle class="st1" cx="16" cy="16" r="16"/>
		
		
			<path d="m28.7 21.8c0-0.1 0.1-0.1 0.1-0.1v-0.1-0.3-0.1-0.1l-0.1-0.1h-0.1l-0.6-0.3s0.1 0 0.1 0.1c0 0-0.1 0-0.1-0.1-0.6-0.3-1.2-0.7-1.8-1-0.6-0.4-1.1-0.9-1.6-1.4s-0.9-1-1.4-1.5c-0.2-0.2-0.5-0.5-0.8-0.7s-0.5-0.4-0.8-0.6-0.6-0.4-0.9-0.5c-0.3-0.2-0.6-0.3-1-0.4-0.6-0.3-1.3-0.6-1.8-1-0.6-0.4-1.1-0.9-1.5-1.4l-0.6-0.9c-0.2-0.3-0.4-0.6-0.7-0.8-0.5-0.5-1.2-0.8-1.9-0.8-0.4 0-0.7 0.1-1 0.2s-0.7 0.3-1 0.4c-0.6 0.3-1.3 0.6-1.7 1.2-0.5 0.5-0.7 1.2-1.1 1.8-0.2 0.3-0.4 0.6-0.6 0.8s-0.5 0.5-0.8 0.7-0.5 0.5-0.7 0.8c0 0.1-0.1 0.2-0.1 0.2 0 0.1-0.1 0.2-0.1 0.3 0 0.2-0.1 0.3-0.1 0.5-0.1 0.7-0.2 1.4-0.6 2-0.1 0.2-0.2 0.3-0.3 0.4s-0.2 0.3-0.4 0.3c-0.1 0-0.3-0.1-0.3-0.2-0.1-0.1-0.2-0.3-0.2-0.5-0.2-0.6-0.3-1.3-0.2-2s0.2-1.4 0.5-2c0.2-0.7 0.5-1.3 0.9-1.9 0.2-0.3 0.4-0.6 0.6-0.8s0.5-0.5 0.8-0.7c-0.1-0.7 0.2-0.9 0.4-1.2s0.5-0.5 0.7-0.8c0.5-0.5 1-1 1.6-1.2 0.3-0.1 0.7-0.2 1-0.2s0.7 0 1 0.2l0.3 0.3c0 0.1 0.1 0.1 0.1 0.2v0.1 0.1s0 0.1 0.1 0.1c0 0.1 0.2 0.1 0.3 0.2 0.1 0 0.2 0 0.3-0.1 0-0.1 0.1-0.1 0-0.2v-0.1-0.1l-0.1-0.1c0-0.1-0.1-0.2-0.1-0.2l-0.2-0.2c-0.1-0.1-0.3-0.2-0.5-0.3-0.3-0.2-0.7-0.3-1-0.3-0.4 0-0.7 0-1.1 0.1-0.3 0.1-0.7 0.2-1 0.4-0.6 0.2-1.1 0.7-1.5 1.2-0.3 0.3-0.5 0.6-0.7 0.8s-0.5 0.5-0.8 0.7-0.5 0.5-0.8 0.8l-0.6 0.9c-0.3 0.6-0.6 1.3-0.8 1.9-0.2 0.7-0.4 1.4-0.4 2.1v1.1c0 0.3 0.1 0.6 0.2 0.9h-0.2l-0.1 0.1v0.1 0.1 0.5c0 0.3 0.1 0.6 0.3 0.9 0.1 0.1 0.2 0.3 0.3 0.4s0.3 0.2 0.4 0.2c0.3 0.1 0.7 0 1 0 0.6-0.1 1.2 0.1 1.8 0.3 0.3 0.1 0.6 0.2 0.9 0.2 0.3 0.1 0.6 0.1 0.9 0.1s0.6 0.1 0.9 0.2 0.6 0.2 0.9 0.3 0.6 0.2 0.9 0.2h0.9c0.6 0 1.3 0 1.9 0.1 0.3 0.1 0.6 0.1 0.9 0.2s0.6 0.1 0.9 0.2c1.2 0.2 2.5 0.4 3.8 0.5 0.6 0.1 1.3 0.2 1.9 0.3s1.2 0.2 1.9 0.3c1.3 0 2.5-0.2 3.7-0.7 0.3-0.1 0.6-0.3 0.8-0.5 0.4 0 0.6-0.2 0.8-0.5v0 0zm-5.8 0.2-0.7-0.1c0.1-0.2 0.3-0.3 0.5-0.4s0.4-0.1 0.7-0.1h0.4c0.1 0 0.2 0.1 0.3 0.1 0.1 0.1 0.1 0.2 0.1 0.3s-0.1 0.2-0.1 0.3h-0.3c-0.4 0-0.6-0.1-0.9-0.1zm-8-10.4c-0.1 0.2-0.3 0.4-0.5 0.4-0.2 0.1-0.5 0.1-0.7 0-0.2 0-0.5-0.1-0.7-0.3-0.2-0.1-0.4-0.3-0.4-0.5v-0.7c0-0.2 0.2-0.4 0.4-0.5s0.5 0 0.7 0c0.2 0.1 0.5 0.2 0.7 0.3 0.2 0.2 0.4 0.4 0.6 0.7 0 0.2 0 0.3-0.1 0.6v0zm7.7 5.4zm0 0zm0.7 1.5v0 0zm0-0.1c0.1 0 0.1-0.1 0 0 0.1-0.1 0.1 0 0 0zm0.1-0.1zm-0.1 0.2c-0.1 0.1-0.2 0.1-0.3 0l-0.6-0.3c-0.2-0.1-0.4-0.3-0.5-0.4-0.2-0.2-0.3-0.3-0.4-0.5-0.1-0.1-0.1-0.3 0-0.4 0-0.1 0.1-0.1 0.1-0.2 0 0 0.1-0.1 0.2-0.1s0.3 0 0.4 0.1 0.3 0.2 0.4 0.3h0.1l0.3 0.3c0.2 0.2 0.3 0.5 0.3 0.8 0.1 0.2 0.1 0.3 0 0.4zm1.1 3.6c0.1-0.1 0.1-0.3 0.1-0.4 0-0.2-0.1-0.3-0.2-0.4s-0.3-0.2-0.4-0.2c-0.2 0-0.3-0.1-0.5-0.1-0.3 0-0.6 0-0.9 0.2s-0.5 0.4-0.7 0.7c-1.3-0.2-2.5-0.4-3.8-0.7s-2.5-0.5-3.8-0.7l-1.9-0.4-1-0.2c-0.3-0.1-0.6-0.1-0.9-0.2-0.6-0.2-1.2-0.3-1.9-0.5-0.3-0.1-0.6-0.1-1-0.2-0.3 0-0.6-0.1-0.9 0 0.2-0.7 0.5-1.5 0.9-2.1 0.2-0.3 0.4-0.6 0.7-0.9 0.1-0.1 0.3-0.3 0.5-0.4s0.3-0.2 0.5-0.3c0.3-0.2 0.7-0.4 0.9-0.7 0.1-0.1 0.3-0.3 0.4-0.5s0.2-0.4 0.2-0.6c0.1-0.4 0.2-0.8 0.4-1.1 0.1-0.2 0.2-0.3 0.3-0.5l0.1-0.1h0.1l0.1-0.1v-0.1s0-0.1-0.1-0.1-0.1-0.1-0.2-0.1h-0.1l-0.1 0.1c-0.1 0.1-0.1 0.2-0.2 0.2-0.1 0.2-0.2 0.4-0.3 0.5-0.1 0.4-0.2 0.8-0.4 1.1-0.1 0.2-0.1 0.4-0.3 0.5-0.1 0.2-0.2 0.3-0.4 0.4-0.3 0.3-0.6 0.5-1 0.7-0.3 0.2-0.7 0.5-0.9 0.8-0.3 0.3-0.5 0.6-0.7 1-0.4 0.7-0.6 1.4-0.8 2.2h-0.3c-0.1 0-0.1 0.1-0.2 0.2v0.1 0.1c0 0.1 0.1 0.1 0.1 0.1h0.1 0.2 0.3c0.5 0 0.9 0 1.4 0.1s0.9 0.2 1.4 0.3 0.9 0.2 1.4 0.3l5.5 1c1.8 0.3 3.7 0.7 5.5 1 0.9 0.1 1.9 0.2 2.8 0.3 0.8 0 1.5 0.1 2.3 0.1-0.8 0.3-1.6 0.5-2.5 0.5-0.5 0-1 0-1.5-0.1-0.3 0-0.5-0.1-0.8-0.1s-0.5-0.1-0.8-0.1c-1-0.2-2.1-0.3-3.1-0.4l-3-0.6-0.8-0.2c-0.3-0.1-0.5-0.1-0.8-0.1h-1.6c-0.3 0-0.5 0-0.8-0.1-0.3 0-0.5-0.1-0.7-0.2-0.5-0.2-1-0.3-1.5-0.4l-1.5-0.3c-0.5-0.1-1-0.3-1.5-0.3-0.3-0.1-0.5-0.1-0.8-0.1s-0.5 0.1-0.8 0.1c-0.1 0-0.2-0.1-0.2-0.2-0.1-0.1-0.1-0.2-0.2-0.3s-0.1-0.3-0.1-0.5c0.2 0.2 0.3 0.3 0.6 0.4h0.5c0.2-0.1 0.3-0.1 0.4-0.3 0.2-0.2 0.4-0.5 0.6-0.7 0.1-0.3 0.3-0.6 0.4-0.9s0.2-0.6 0.2-0.9c0.1-0.3 0.1-0.6 0.2-0.9s0.2-0.6 0.4-0.8l0.6-0.6c0.1-0.2 0.4-0.4 0.6-0.6s0.4-0.5 0.5-0.8c0.3-0.5 0.5-1.1 0.9-1.6s0.9-0.8 1.4-1.1c0.3-0.1 0.6-0.2 0.8-0.4 0.2-0.1 0.3-0.1 0.5-0.2l-0.1 0.1c-0.1 0.1-0.2 0.3-0.2 0.4-0.1 0.3-0.1 0.6-0.1 0.9v0.1c0.1 0.3 0.3 0.6 0.6 0.8s0.6 0.3 1 0.3c0.3 0 0.7 0 1-0.1 0.1 0 0.2-0.1 0.2-0.1 0.3 0 0.3-0.1 0.4-0.1 0.1-0.1 0.1-0.2 0.2-0.3 0.2 0.3 0.3 0.5 0.5 0.7 0.2 0.3 0.5 0.5 0.8 0.7 0.5 0.4 1.1 0.8 1.7 1.1 0.3 0.2 0.6 0.3 0.9 0.4s0.6 0.3 0.9 0.4c0.3 0.2 0.6 0.3 0.9 0.5 0.2 0.2 0.5 0.4 0.7 0.6-0.1 0-0.2 0-0.3 0.1s-0.3 0.2-0.3 0.3c-0.2 0.2-0.2 0.6-0.1 0.8v0.1c0.1 0.3 0.4 0.5 0.6 0.7s0.5 0.4 0.7 0.5c0.1 0.1 0.3 0.1 0.4 0.2 0.1 0 0.3 0.1 0.5 0 0.1 0 0.3-0.2 0.3-0.3 0.1-0.1 0.1-0.3 0.1-0.4 0.2 0.2 0.3 0.4 0.5 0.6s0.4 0.4 0.6 0.5c0.4 0.3 0.9 0.6 1.4 0.9l1.4 0.8c0.1 0.1 0.2 0.1 0.3 0.2s0.2 0.2 0.1 0.4c0 0.1-0.1 0.3-0.2 0.4l-0.3 0.3 0.1-0.1-0.1 0.1c-0.8 0-1.9 0-3-0.1zm3.7-0.7zm-0.2 0.5-0.1 0.1c0.1 0 0.1-0.1 0.1-0.1zm0.2-0.4v0 0zm-0.1 0.3zm0 0.1zm0.2-0.4zm-0.3-1z"/>
			<path d="m12.1 11.3z"/>
			<path d="m12.4 15.3c0.1 0.1 0.3 0.2 0.5 0.3 0.4 0.1 0.7 0.2 1.1 0.2h0.6c0.2 0 0.4-0.1 0.5-0.2 0.2-0.1 0.3-0.2 0.4-0.4s0.1-0.4 0.1-0.6-0.1-0.4-0.3-0.5c-0.1-0.1-0.3-0.3-0.5-0.3-0.4-0.2-0.7-0.3-1.1-0.3h-0.1-0.2c-0.1 0-0.2 0-0.3 0.1-0.2 0.1-0.4 0.2-0.5 0.3-0.2 0.1-0.3 0.3-0.4 0.5s-0.1 0.4-0.1 0.6c0.1-0.1 0.1 0.1 0.3 0.3zm1.8-1.4c0.3 0.1 0.5 0.2 0.7 0.5 0.2 0.2 0.2 0.5 0 0.7-0.1 0.2-0.4 0.3-0.7 0.3h-0.4c-0.1 0-0.3 0-0.4-0.1-0.1 0-0.3-0.1-0.4-0.1s-0.3-0.1-0.3-0.2c-0.1-0.1-0.1-0.2-0.1-0.4 0-0.1 0-0.3 0.1-0.4 0.2-0.2 0.4-0.4 0.7-0.4h0.2-0.2c0.3-0.1 0.6 0 0.8 0.1z"/>
			<path d="m10.9 17.5c-0.2-0.1-0.3-0.2-0.5-0.3s-0.3-0.2-0.5-0.2c-0.2-0.1-0.4-0.1-0.6-0.1s-0.4 0-0.6 0.1c-0.2 0-0.4 0.1-0.5 0.2-0.2 0.1-0.3 0.3-0.3 0.5-0.1 0.2-0.1 0.4 0 0.6 0 0.2 0.2 0.4 0.4 0.5 0.1 0 0.2 0.1 0.3 0.1h0.3c0.2 0 0.4 0.1 0.5 0.2 0.2 0.1 0.4 0.1 0.6 0.2 0.2 0 0.4 0.1 0.6 0.1s0.4 0 0.6-0.1h0.1l0.2-0.2v-0.1s0-0.1 0.1-0.1v-0.2c0-0.2 0-0.4-0.1-0.6-0.3-0.3-0.4-0.5-0.6-0.6zm-1.5 1c-0.2-0.1-0.3-0.1-0.5-0.1h-0.2-0.2c-0.1 0-0.1-0.2-0.1-0.4 0-0.1 0-0.1 0.1-0.2 0-0.1 0.1-0.1 0.1-0.2 0.1-0.1 0.3-0.1 0.4-0.2 0.2 0 0.3-0.1 0.5-0.1s0.5 0.1 0.7 0.2 0.5 0.2 0.7 0.4c0.1 0.1 0.2 0.2 0.2 0.3 0.1 0.1 0.1 0.2 0 0.4-0.1 0.1-0.2 0.2-0.3 0.2s-0.3 0.1-0.4 0c-0.4 0-0.7-0.2-1-0.3z"/>
			<path d="m20 19.1v0c-0.1-0.2-0.1-0.2-0.2-0.3-0.2-0.2-0.5-0.4-0.7-0.5s-0.4-0.2-0.5-0.2h-0.1c-0.1 0-0.1 0-0.2-0.1-0.2-0.1-0.4-0.1-0.6-0.1s-0.4 0.1-0.6 0.1c-0.2 0.1-0.3 0.2-0.5 0.4l-0.1 0.1s0 0.1-0.1 0.1v0.2 0.1 0.1c0 0.4 0.2 0.6 0.4 0.8s0.5 0.3 0.8 0.4 0.6 0.2 0.9 0.2 0.6 0 0.9-0.1c0.1-0.1 0.3-0.1 0.4-0.3 0.1-0.1 0.2-0.3 0.2-0.4 0-0.2 0-0.3-0.1-0.5h0.1zm-0.7 0.8h-0.4c-0.3 0-0.5-0.1-0.8-0.1-0.3-0.1-0.5-0.2-0.7-0.3s-0.4-0.3-0.4-0.5c0-0.3 0.2-0.6 0.6-0.7h0.5 0.3c0.1 0 0.2 0 0.2 0.1 0.3 0.1 0.6 0.3 0.9 0.5 0.1 0.1 0.3 0.2 0.4 0.4 0 0.1 0.1 0.2 0 0.3 0 0.1-0.1 0.2-0.1 0.2l-0.1 0.1s0.1 0 0.1-0.1c-0.2 0.1-0.4 0.1-0.5 0.1zm0.3-0.1s-0.1 0 0 0c-0.1 0 0 0 0 0zm0.2-0.2v0 0zm-0.1 0.1z"/>
			<path d="m16.4 17.2c0.1 0 0.1 0 0 0h0.1c-0.3-0.1-0.6-0.2-0.9-0.2h-0.4c-0.1 0-0.1 0.1-0.2 0.1s-0.1 0.1-0.1 0.2v0.2c0 0.1 0.1 0.1 0.1 0.2s0 0.1 0.1 0.2v0.1h-0.2c-0.1 0-0.1 0-0.2-0.1s-0.2-0.2-0.4-0.3c-0.1-0.1-0.2-0.2-0.4-0.3-0.1-0.1-0.2-0.2-0.4-0.2-0.3-0.2-0.5-0.3-0.8-0.4s-0.6-0.1-0.9-0.1c-0.2 0-0.3 0.1-0.5 0.1h-0.1s-0.1 0-0.1 0.1c0 0-0.1 0.1 0 0.2 0 0.1 0.1 0.1 0.1 0.1h0.2 0.1 0.1 0.1c0.1 0 0.3-0.1 0.4 0 0.3 0 0.5 0.1 0.8 0.2s0.5 0.3 0.8 0.4c0.2 0.2 0.5 0.3 0.8 0.5 0.1 0.1 0.3 0.1 0.4 0.1 0.2 0 0.3 0 0.5-0.1 0.1-0.1 0.2-0.3 0.2-0.4s-0.1-0.1-0.1-0.2v-0.2-0.2c0-0.1 0.1-0.1 0.2-0.1h0.4s0.1 0 0.3 0.1z"/>
			<path d="m17.3 14.8 0.1 0.1c0.1 0.1 0.1 0.2 0.2 0.2 0.3 0.3 0.7 0.5 1.1 0.6 0.2 0 0.4 0.1 0.6 0.2 0.1 0 0.2 0.1 0.2 0.1v0.2s-0.1 0.1-0.2 0.1-0.2 0-0.2-0.1c-0.1 0-0.2-0.1-0.2-0.2h-0.1l-0.1-0.1c-0.1 0-0.2 0-0.2 0.1 0 0-0.1 0.1-0.1 0.2v0.1l0.1 0.1c0.1 0.1 0.2 0.1 0.3 0.2 0.2 0.1 0.4 0.2 0.6 0.2s0.4-0.2 0.5-0.4 0.1-0.4 0-0.6-0.3-0.3-0.5-0.3c-0.2-0.1-0.4-0.1-0.6-0.1-0.1 0-0.1 0-0.1-0.1-0.3-0.1-0.6-0.3-0.9-0.6l-0.1-0.1v-0.1l-0.1-0.1h-0.2l-0.1 0.1v0.3zm1.6 0.6h-0.1 0.1zm-0.3-0.1z"/>
		
	

</svg>
